<?xml version="1.0" standalone="no"?>
<!DOCTYPE svg PUBLIC "-//W3C//DTD SVG 20010904//EN"
 "http://www.w3.org/TR/2001/REC-SVG-20010904/DTD/svg10.dtd">
<svg version="1.0" xmlns="http://www.w3.org/2000/svg"
 width="700.000000pt" height="700.000000pt" viewBox="0 0 700.000000 700.000000"
 preserveAspectRatio="xMidYMid meet">
<metadata>
Created by potrace 1.11, written by Peter Selinger 2001-2013
</metadata>
<g transform="translate(0.000000,700.000000) scale(0.100000,-0.100000)"
fill="#000000" stroke="none">
<path d="M3173 5613 l-321 -988 -1192 -3 -1193 -2 999 -726 c550 -399 1005
-731 1011 -737 10 -10 -62 -241 -347 -1121 -198 -610 -359 -1110 -358 -1111 2
-2 392 280 867 626 l865 628 30 -23 c194 -145 1678 -1217 1681 -1214 3 2 -155
496 -350 1096 -195 601 -355 1099 -355 1106 0 7 453 343 1006 745 l1007 731
-1188 2 -1187 3 -321 988 c-177 543 -324 987 -327 987 -3 0 -150 -444 -327
-987z m1031 -1540 c235 -707 298 -908 290 -919 -9 -14 -985 -724 -994 -724 -3
0 -106 75 -230 165 -186 136 -759 555 -767 560 -2 1 83 264 187 585 105 320
190 585 190 587 0 1 279 3 619 3 l619 0 86 -257z"/>
</g>
</svg>
