<svg width="512" height="512" viewBox="0 0 512 512" fill="none" xmlns="http://www.w3.org/2000/svg">
<rect width="512" height="512" rx="12" fill="#315556"/>
<path d="M280.52 219.48C280.52 226.107 285.893 231.48 292.52 231.48H452.421C459.049 231.48 464.421 236.852 464.421 243.48V268.52C464.421 275.148 459.049 280.52 452.421 280.52H292.52C285.893 280.52 280.52 285.893 280.52 292.52V452.421C280.52 459.049 275.148 464.421 268.52 464.421H243.48C236.852 464.421 231.48 459.049 231.48 452.421V292.52C231.48 285.893 226.107 280.52 219.48 280.52H59.5788C52.9514 280.52 47.5788 275.148 47.5788 268.52V243.48C47.5788 236.852 52.9514 231.48 59.5788 231.48H219.48C226.107 231.48 231.48 226.107 231.48 219.48V59.5788C231.48 52.9514 236.852 47.5788 243.48 47.5788H268.52C275.148 47.5788 280.52 52.9513 280.52 59.5788V219.48Z" fill="#FF8552"/>
<path d="M248.456 209.571C253.143 214.257 260.741 214.257 265.427 209.571L378.494 96.5037C383.18 91.8174 390.778 91.8174 395.465 96.5037L413.171 114.21C417.857 118.896 417.857 126.494 413.171 131.18L300.104 244.248C295.417 248.934 295.417 256.532 300.104 261.218L413.171 374.285C417.857 378.972 417.857 386.57 413.171 391.256L395.465 408.962C390.778 413.648 383.18 413.648 378.494 408.962L265.427 295.895C260.741 291.209 253.143 291.209 248.456 295.895L135.389 408.962C130.703 413.648 123.105 413.648 118.419 408.962L100.713 391.256C96.0263 386.57 96.0263 378.972 100.713 374.285L213.78 261.218C218.466 256.532 218.466 248.934 213.78 244.248L100.713 131.18C96.0263 126.494 96.0263 118.896 100.713 114.21L118.419 96.5037C123.105 91.8174 130.703 91.8174 135.389 96.5037L248.456 209.571Z" fill="#FF8552"/>
</svg>
