<svg width="375" height="812" viewBox="0 0 375 812" fill="none" xmlns="http://www.w3.org/2000/svg">
<path d="M374.999 702.431C274.634 685.689 99.4818 684.203 -0.00463867 764.641V812.972H374.999V702.431Z" fill="#297373"/>
<path d="M-0.0161133 569.714C57.8227 596.869 135.04 585.068 183.432 564.765C235.994 542.713 313.463 537.934 371.907 512.021H-0.0161133V569.714Z" fill="#85FFC7" fill-opacity="0.5"/>
<path d="M376.563 57.8395C318.244 84.994 240.384 73.1925 191.59 52.8899C138.591 30.8377 60.4784 26.0585 1.5484 0.145874H376.563V57.8395Z" fill="#297373" fill-opacity="0.5"/>
<path d="M0 57.8395C58.5604 84.994 136.741 73.1925 185.737 52.8899C238.954 30.8377 317.39 26.0585 376.563 0.145874H0V57.8395Z" fill="#FF8552"/>
<path d="M-0.00463867 511.035V238.64C99.4818 158.203 274.634 159.689 374.999 176.431V510.622C374.699 510.76 374.399 510.898 374.099 511.035H-0.00463867Z" fill="#3F3D56"/>
<g clip-path="url(#clip0)">
<path d="M115.457 305.207C114.367 346.057 168.983 387.757 237.155 387.757C305.328 387.757 413.894 307.224 362.332 305.207C262.979 301.322 228.932 260.298 238.895 231.216C256.736 179.134 117.602 224.774 115.457 305.207Z" fill="#3F3D56"/>
<path d="M115.457 305.207C114.367 346.057 168.983 387.757 237.155 387.757C305.328 387.757 413.894 307.224 362.332 305.207C262.979 301.322 228.932 260.298 238.895 231.216C256.736 179.134 117.602 224.774 115.457 305.207Z" fill="#3F3D56"/>
<path d="M206.138 272.854L205.307 272.326L205.836 271.497L205.609 271.354L205.08 272.183L204.249 271.655L204.105 271.881L204.936 272.408L204.407 273.237L204.634 273.381L205.162 272.552L205.994 273.079L206.138 272.854Z" fill="#85FFC7"/>
<path d="M267.948 332.857L267.117 332.33L267.646 331.501L267.419 331.357L266.89 332.186L266.059 331.659L265.915 331.884L266.746 332.412L266.217 333.241L266.444 333.385L266.972 332.556L267.803 333.083L267.948 332.857Z" fill="#85FFC7"/>
<path d="M167.914 325.559L167.082 325.032L167.611 324.203L167.385 324.06L166.856 324.888L166.025 324.361L165.88 324.587L166.712 325.114L166.183 325.943L166.409 326.087L166.938 325.258L167.769 325.785L167.914 325.559Z" fill="#85FFC7"/>
<path d="M242.736 364.481L241.905 363.953L242.434 363.124L242.207 362.981L241.678 363.81L240.847 363.282L240.703 363.508L241.534 364.035L241.005 364.864L241.232 365.008L241.76 364.179L242.591 364.706L242.736 364.481Z" fill="#85FFC7"/>
<path d="M173.2 349.48L172.369 348.952L172.898 348.124L172.671 347.98L172.142 348.809L171.311 348.281L171.167 348.507L171.998 349.035L171.469 349.863L171.696 350.007L172.224 349.178L173.056 349.706L173.2 349.48Z" fill="#85FFC7"/>
<path d="M340.737 329.614L339.906 329.086L340.435 328.258L340.208 328.114L339.679 328.943L338.848 328.415L338.704 328.641L339.535 329.169L339.006 329.997L339.233 330.141L339.761 329.312L340.592 329.84L340.737 329.614Z" fill="#85FFC7"/>
<path d="M156.121 280.557L155.29 280.029L155.819 279.201L155.592 279.057L155.063 279.886L154.232 279.358L154.088 279.584L154.919 280.112L154.39 280.94L154.617 281.084L155.145 280.256L155.976 280.783L156.121 280.557Z" fill="#85FFC7"/>
<path d="M225.657 289.67L224.493 288.933L225.233 287.772L224.916 287.571L224.176 288.731L223.012 287.993L222.81 288.309L223.974 289.047L223.234 290.208L223.551 290.409L224.291 289.249L225.455 289.987L225.657 289.67Z" fill="white"/>
<path d="M183.773 305.004C184.446 305.004 184.993 304.46 184.993 303.788C184.993 303.116 184.446 302.572 183.773 302.572C183.099 302.572 182.553 303.116 182.553 303.788C182.553 304.46 183.099 305.004 183.773 305.004Z" fill="#85FFC7"/>
<path d="M136.196 305.004C136.869 305.004 137.415 304.46 137.415 303.788C137.415 303.116 136.869 302.572 136.196 302.572C135.522 302.572 134.976 303.116 134.976 303.788C134.976 304.46 135.522 305.004 136.196 305.004Z" fill="#85FFC7"/>
<path d="M219.151 260.407C219.824 260.407 220.371 259.863 220.371 259.191C220.371 258.519 219.824 257.975 219.151 257.975C218.477 257.975 217.931 258.519 217.931 259.191C217.931 259.863 218.477 260.407 219.151 260.407Z" fill="#85FFC7"/>
<path d="M207.765 334.601C208.438 334.601 208.985 334.056 208.985 333.384C208.985 332.713 208.438 332.168 207.765 332.168C207.091 332.168 206.545 332.713 206.545 333.384C206.545 334.056 207.091 334.601 207.765 334.601Z" fill="#85FFC7"/>
<path d="M206.951 308.653C207.4 308.653 207.765 308.29 207.765 307.842C207.765 307.395 207.4 307.031 206.951 307.031C206.502 307.031 206.138 307.395 206.138 307.842C206.138 308.29 206.502 308.653 206.951 308.653Z" fill="#85FFC7"/>
<path d="M290.313 344.331C290.762 344.331 291.126 343.968 291.126 343.52C291.126 343.072 290.762 342.709 290.313 342.709C289.864 342.709 289.5 343.072 289.5 343.52C289.5 343.968 289.864 344.331 290.313 344.331Z" fill="#FF6584"/>
<path d="M165.88 300.139C166.33 300.139 166.694 299.776 166.694 299.328C166.694 298.881 166.33 298.518 165.88 298.518C165.431 298.518 165.067 298.881 165.067 299.328C165.067 299.776 165.431 300.139 165.88 300.139Z" fill="#FF6584"/>
<path d="M216.711 234.46C217.16 234.46 217.524 234.097 217.524 233.649C217.524 233.201 217.16 232.838 216.711 232.838C216.262 232.838 215.897 233.201 215.897 233.649C215.897 234.097 216.262 234.46 216.711 234.46Z" fill="#FF6584"/>
<path d="M183.366 272.165C183.815 272.165 184.179 271.802 184.179 271.354C184.179 270.906 183.815 270.543 183.366 270.543C182.917 270.543 182.553 270.906 182.553 271.354C182.553 271.802 182.917 272.165 183.366 272.165Z" fill="#85FFC7"/>
<path d="M193.532 245.001C193.981 245.001 194.345 244.638 194.345 244.19C194.345 243.742 193.981 243.379 193.532 243.379C193.083 243.379 192.719 243.742 192.719 244.19C192.719 244.638 193.083 245.001 193.532 245.001Z" fill="white"/>
<path d="M315.118 318.384C315.792 318.384 316.338 317.839 316.338 317.167C316.338 316.496 315.792 315.951 315.118 315.951C314.445 315.951 313.898 316.496 313.898 317.167C313.898 317.839 314.445 318.384 315.118 318.384Z" fill="#85FFC7"/>
<path d="M234.196 322.843C234.87 322.843 235.416 322.299 235.416 321.627C235.416 320.955 234.87 320.411 234.196 320.411C233.523 320.411 232.977 320.955 232.977 321.627C232.977 322.299 233.523 322.843 234.196 322.843Z" fill="#85FFC7"/>
<path d="M213.458 354.467C215.703 354.467 217.524 352.652 217.524 350.412C217.524 348.173 215.703 346.358 213.458 346.358C211.212 346.358 209.391 348.173 209.391 350.412C209.391 352.652 211.212 354.467 213.458 354.467Z" fill="#85FFC7"/>
<path d="M262.661 307.437C263.335 307.437 263.881 306.892 263.881 306.221C263.881 305.549 263.335 305.004 262.661 305.004C261.988 305.004 261.441 305.549 261.441 306.221C261.441 306.892 261.988 307.437 262.661 307.437Z" fill="white"/>
<path d="M221 427.971L221.831 428.499L221.302 429.327L221.529 429.471L222.057 428.642L222.889 429.17L223.033 428.944L222.202 428.416L222.731 427.588L222.504 427.444L221.975 428.272L221.144 427.745L221 427.971Z" fill="#85FFC7"/>
<path d="M159.19 367.968L160.021 368.495L159.492 369.324L159.719 369.467L160.248 368.639L161.079 369.166L161.223 368.94L160.392 368.413L160.921 367.584L160.694 367.44L160.166 368.269L159.335 367.742L159.19 367.968Z" fill="#85FFC7"/>
<path d="M259.224 375.265L260.056 375.793L259.526 376.621L259.753 376.765L260.282 375.936L261.113 376.464L261.258 376.238L260.426 375.71L260.955 374.882L260.729 374.738L260.2 375.567L259.369 375.039L259.224 375.265Z" fill="#85FFC7"/>
<path d="M184.402 336.344L185.233 336.872L184.704 337.7L184.931 337.844L185.46 337.015L186.291 337.543L186.435 337.317L185.604 336.789L186.133 335.961L185.906 335.817L185.378 336.645L184.546 336.118L184.402 336.344Z" fill="#85FFC7"/>
<path d="M253.938 351.345L254.769 351.873L254.24 352.701L254.467 352.845L254.996 352.016L255.827 352.543L255.971 352.318L255.14 351.79L255.669 350.962L255.442 350.818L254.914 351.646L254.082 351.119L253.938 351.345Z" fill="#85FFC7"/>
<path d="M86.4011 371.211L87.2323 371.738L86.7033 372.567L86.9302 372.711L87.4588 371.882L88.29 372.409L88.4343 372.184L87.6032 371.656L88.1322 370.827L87.9053 370.684L87.3767 371.512L86.5455 370.985L86.4011 371.211Z" fill="#85FFC7"/>
<path d="M271.017 420.268L271.848 420.795L271.319 421.624L271.546 421.768L272.075 420.939L272.906 421.466L273.05 421.241L272.219 420.713L272.748 419.884L272.521 419.74L271.992 420.569L271.161 420.042L271.017 420.268Z" fill="#85FFC7"/>
<path d="M201.481 411.154L202.645 411.892L201.904 413.053L202.221 413.254L202.962 412.094L204.125 412.832L204.327 412.515L203.164 411.777L203.904 410.617L203.587 410.416L202.846 411.576L201.683 410.838L201.481 411.154Z" fill="white"/>
<path d="M243.365 395.82C242.692 395.82 242.145 396.365 242.145 397.037C242.145 397.708 242.692 398.253 243.365 398.253C244.039 398.253 244.585 397.708 244.585 397.037C244.585 396.365 244.039 395.82 243.365 395.82Z" fill="#85FFC7"/>
<path d="M290.942 395.82C290.269 395.82 289.723 396.365 289.723 397.037C289.723 397.708 290.269 398.253 290.942 398.253C291.616 398.253 292.162 397.708 292.162 397.037C292.162 396.365 291.616 395.82 290.942 395.82Z" fill="#85FFC7"/>
<path d="M207.987 440.418C207.314 440.418 206.767 440.962 206.767 441.634C206.767 442.306 207.314 442.85 207.987 442.85C208.661 442.85 209.207 442.306 209.207 441.634C209.207 440.962 208.661 440.418 207.987 440.418Z" fill="#85FFC7"/>
<path d="M219.373 366.224C218.7 366.224 218.153 366.769 218.153 367.44C218.153 368.112 218.7 368.657 219.373 368.657C220.047 368.657 220.593 368.112 220.593 367.44C220.593 366.769 220.047 366.224 219.373 366.224Z" fill="#85FFC7"/>
<path d="M220.186 392.171C219.737 392.171 219.373 392.535 219.373 392.982C219.373 393.43 219.737 393.793 220.186 393.793C220.636 393.793 221 393.43 221 392.982C221 392.535 220.636 392.171 220.186 392.171Z" fill="#85FFC7"/>
<path d="M136.825 356.494C136.376 356.494 136.012 356.857 136.012 357.305C136.012 357.752 136.376 358.115 136.825 358.115C137.274 358.115 137.638 357.752 137.638 357.305C137.638 356.857 137.274 356.494 136.825 356.494Z" fill="#FF6584"/>
<path d="M261.258 400.685C260.808 400.685 260.444 401.049 260.444 401.496C260.444 401.944 260.808 402.307 261.258 402.307C261.707 402.307 262.071 401.944 262.071 401.496C262.071 401.049 261.707 400.685 261.258 400.685Z" fill="#FF6584"/>
<path d="M210.427 466.365C209.978 466.365 209.614 466.728 209.614 467.176C209.614 467.624 209.978 467.987 210.427 467.987C210.876 467.987 211.24 467.624 211.24 467.176C211.24 466.728 210.876 466.365 210.427 466.365Z" fill="#FF6584"/>
<path d="M243.772 428.66C243.323 428.66 242.959 429.023 242.959 429.471C242.959 429.919 243.323 430.282 243.772 430.282C244.221 430.282 244.585 429.919 244.585 429.471C244.585 429.023 244.221 428.66 243.772 428.66Z" fill="#85FFC7"/>
<path d="M233.606 455.824C233.157 455.824 232.793 456.187 232.793 456.635C232.793 457.083 233.157 457.446 233.606 457.446C234.055 457.446 234.419 457.083 234.419 456.635C234.419 456.187 234.055 455.824 233.606 455.824Z" fill="white"/>
<path d="M112.02 382.441C111.346 382.441 110.8 382.986 110.8 383.657C110.8 384.329 111.346 384.874 112.02 384.874C112.693 384.874 113.24 384.329 113.24 383.657C113.24 382.986 112.693 382.441 112.02 382.441Z" fill="#85FFC7"/>
<path d="M192.941 377.981C192.268 377.981 191.722 378.526 191.722 379.198C191.722 379.87 192.268 380.414 192.941 380.414C193.615 380.414 194.161 379.87 194.161 379.198C194.161 378.526 193.615 377.981 192.941 377.981Z" fill="#85FFC7"/>
<path d="M213.68 346.358C211.435 346.358 209.614 348.173 209.614 350.412C209.614 352.651 211.435 354.467 213.68 354.467C215.926 354.467 217.747 352.651 217.747 350.412C217.747 348.173 215.926 346.358 213.68 346.358Z" fill="#85FFC7"/>
<path d="M164.477 393.388C163.803 393.388 163.257 393.932 163.257 394.604C163.257 395.276 163.803 395.82 164.477 395.82C165.15 395.82 165.697 395.276 165.697 394.604C165.697 393.932 165.15 393.388 164.477 393.388Z" fill="white"/>
<path d="M62.9998 303.832L63.8309 303.305L63.3019 302.476L63.5288 302.333L64.0574 303.161L64.8886 302.634L65.033 302.86L64.2018 303.387L64.7308 304.216L64.5039 304.36L63.9753 303.531L63.1441 304.058L62.9998 303.832Z" fill="#85FFC7"/>
<path d="M1.19019 363.836L2.02136 363.308L1.49234 362.48L1.71924 362.336L2.24786 363.165L3.07904 362.637L3.22339 362.863L2.39224 363.391L2.92126 364.219L2.69436 364.363L2.16574 363.535L1.33456 364.062L1.19019 363.836Z" fill="#85FFC7"/>
<path d="M101.224 356.538L102.056 356.011L101.526 355.182L101.753 355.038L102.282 355.867L103.113 355.34L103.258 355.565L102.426 356.093L102.955 356.922L102.729 357.065L102.2 356.237L101.369 356.764L101.224 356.538Z" fill="#85FFC7"/>
<path d="M26.4021 395.459L27.2333 394.932L26.7043 394.103L26.9311 393.96L27.4598 394.788L28.291 394.261L28.4353 394.487L27.6042 395.014L28.1332 395.843L27.9063 395.987L27.3776 395.158L26.5465 395.685L26.4021 395.459Z" fill="#85FFC7"/>
<path d="M95.938 380.458L96.7692 379.931L96.2401 379.102L96.467 378.959L96.9956 379.787L97.8268 379.26L97.9712 379.486L97.14 380.013L97.6691 380.842L97.4422 380.986L96.9135 380.157L96.0823 380.684L95.938 380.458Z" fill="#85FFC7"/>
<path d="M113.017 311.535L113.848 311.008L113.319 310.179L113.546 310.036L114.075 310.864L114.906 310.337L115.05 310.563L114.219 311.09L114.748 311.919L114.521 312.063L113.992 311.234L113.161 311.761L113.017 311.535Z" fill="#85FFC7"/>
<path d="M43.4809 320.649L44.6447 319.911L43.9042 318.751L44.2214 318.55L44.9619 319.71L46.1253 318.971L46.3274 319.288L45.1636 320.026L45.9041 321.186L45.5869 321.388L44.8464 320.227L43.683 320.966L43.4809 320.649Z" fill="white"/>
<path d="M85.3653 335.983C84.6915 335.983 84.1454 335.438 84.1454 334.767C84.1454 334.095 84.6915 333.55 85.3653 333.55C86.039 333.55 86.5852 334.095 86.5852 334.767C86.5852 335.438 86.039 335.983 85.3653 335.983Z" fill="#85FFC7"/>
<path d="M132.942 335.983C132.269 335.983 131.723 335.438 131.723 334.767C131.723 334.095 132.269 333.55 132.942 333.55C133.616 333.55 134.162 334.095 134.162 334.767C134.162 335.438 133.616 335.983 132.942 335.983Z" fill="#85FFC7"/>
<path d="M49.9874 291.386C49.3136 291.386 48.7674 290.841 48.7674 290.17C48.7674 289.498 49.3136 288.953 49.9874 288.953C50.6611 288.953 51.2073 289.498 51.2073 290.17C51.2073 290.841 50.6611 291.386 49.9874 291.386Z" fill="#85FFC7"/>
<path d="M61.3733 365.579C60.6996 365.579 60.1534 365.035 60.1534 364.363C60.1534 363.691 60.6996 363.147 61.3733 363.147C62.0471 363.147 62.5933 363.691 62.5933 364.363C62.5933 365.035 62.0471 365.579 61.3733 365.579Z" fill="#85FFC7"/>
<path d="M62.1865 339.632C61.7373 339.632 61.3732 339.269 61.3732 338.821C61.3732 338.373 61.7373 338.01 62.1865 338.01C62.6356 338.01 62.9998 338.373 62.9998 338.821C62.9998 339.269 62.6356 339.632 62.1865 339.632Z" fill="#85FFC7"/>
<path d="M103.258 331.118C102.808 331.118 102.444 330.755 102.444 330.307C102.444 329.859 102.808 329.496 103.258 329.496C103.707 329.496 104.071 329.859 104.071 330.307C104.071 330.755 103.707 331.118 103.258 331.118Z" fill="#FF6584"/>
<path d="M52.4272 265.438C51.978 265.438 51.6139 265.075 51.6139 264.628C51.6139 264.18 51.978 263.817 52.4272 263.817C52.8764 263.817 53.2405 264.18 53.2405 264.628C53.2405 265.075 52.8764 265.438 52.4272 265.438Z" fill="#FF6584"/>
<path d="M85.7719 303.143C85.3227 303.143 84.9586 302.78 84.9586 302.332C84.9586 301.885 85.3227 301.522 85.7719 301.522C86.2211 301.522 86.5852 301.885 86.5852 302.332C86.5852 302.78 86.2211 303.143 85.7719 303.143Z" fill="#85FFC7"/>
<path d="M75.6059 275.979C75.1568 275.979 74.7926 275.616 74.7926 275.169C74.7926 274.721 75.1568 274.358 75.6059 274.358C76.0551 274.358 76.4192 274.721 76.4192 275.169C76.4192 275.616 76.0551 275.979 75.6059 275.979Z" fill="white"/>
<path d="M34.9415 353.822C34.2677 353.822 33.7215 353.277 33.7215 352.606C33.7215 351.934 34.2677 351.389 34.9415 351.389C35.6152 351.389 36.1614 351.934 36.1614 352.606C36.1614 353.277 35.6152 353.822 34.9415 353.822Z" fill="#85FFC7"/>
<path d="M55.6804 385.445C53.4346 385.445 51.614 383.63 51.614 381.391C51.614 379.152 53.4346 377.337 55.6804 377.337C57.9262 377.337 59.7468 379.152 59.7468 381.391C59.7468 383.63 57.9262 385.445 55.6804 385.445Z" fill="#85FFC7"/>
<path d="M6.47661 338.416C5.80286 338.416 5.25668 337.871 5.25668 337.199C5.25668 336.528 5.80286 335.983 6.47661 335.983C7.15035 335.983 7.69653 336.528 7.69653 337.199C7.69653 337.871 7.15035 338.416 6.47661 338.416Z" fill="white"/>
<path d="M143 403.832L143.831 403.305L143.302 402.476L143.529 402.333L144.057 403.161L144.889 402.634L145.033 402.86L144.202 403.387L144.731 404.216L144.504 404.36L143.975 403.531L143.144 404.058L143 403.832Z" fill="#85FFC7"/>
<path d="M81.1902 463.836L82.0214 463.308L81.4923 462.48L81.7192 462.336L82.2479 463.165L83.079 462.637L83.2234 462.863L82.3922 463.391L82.9213 464.219L82.6944 464.363L82.1657 463.535L81.3346 464.062L81.1902 463.836Z" fill="#85FFC7"/>
<path d="M181.224 456.538L182.056 456.011L181.526 455.182L181.753 455.038L182.282 455.867L183.113 455.34L183.258 455.565L182.426 456.093L182.955 456.922L182.729 457.065L182.2 456.237L181.369 456.764L181.224 456.538Z" fill="#85FFC7"/>
<path d="M106.402 495.459L107.233 494.932L106.704 494.103L106.931 493.96L107.46 494.788L108.291 494.261L108.435 494.487L107.604 495.014L108.133 495.843L107.906 495.987L107.378 495.158L106.546 495.685L106.402 495.459Z" fill="#85FFC7"/>
<path d="M175.938 480.458L176.769 479.931L176.24 479.102L176.467 478.959L176.996 479.787L177.827 479.26L177.971 479.486L177.14 480.013L177.669 480.842L177.442 480.986L176.914 480.157L176.082 480.684L175.938 480.458Z" fill="#85FFC7"/>
<path d="M8.40112 460.592L9.2323 460.065L8.70327 459.236L8.93017 459.093L9.4588 459.921L10.29 459.394L10.4343 459.62L9.60317 460.147L10.1322 460.976L9.9053 461.12L9.37667 460.291L8.5455 460.818L8.40112 460.592Z" fill="#85FFC7"/>
<path d="M193.017 411.535L193.848 411.008L193.319 410.179L193.546 410.036L194.075 410.864L194.906 410.337L195.05 410.563L194.219 411.09L194.748 411.919L194.521 412.063L193.992 411.234L193.161 411.761L193.017 411.535Z" fill="#85FFC7"/>
<path d="M123.481 420.649L124.645 419.911L123.904 418.751L124.221 418.55L124.962 419.71L126.125 418.971L126.327 419.288L125.164 420.026L125.904 421.186L125.587 421.388L124.846 420.227L123.683 420.966L123.481 420.649Z" fill="white"/>
<path d="M165.365 435.983C164.692 435.983 164.145 435.438 164.145 434.767C164.145 434.095 164.692 433.55 165.365 433.55C166.039 433.55 166.585 434.095 166.585 434.767C166.585 435.438 166.039 435.983 165.365 435.983Z" fill="#85FFC7"/>
<path d="M212.942 435.983C212.269 435.983 211.723 435.438 211.723 434.767C211.723 434.095 212.269 433.55 212.942 433.55C213.616 433.55 214.162 434.095 214.162 434.767C214.162 435.438 213.616 435.983 212.942 435.983Z" fill="#85FFC7"/>
<path d="M129.987 391.386C129.314 391.386 128.767 390.841 128.767 390.17C128.767 389.498 129.314 388.953 129.987 388.953C130.661 388.953 131.207 389.498 131.207 390.17C131.207 390.841 130.661 391.386 129.987 391.386Z" fill="#85FFC7"/>
<path d="M141.373 465.579C140.7 465.579 140.153 465.035 140.153 464.363C140.153 463.691 140.7 463.147 141.373 463.147C142.047 463.147 142.593 463.691 142.593 464.363C142.593 465.035 142.047 465.579 141.373 465.579Z" fill="#85FFC7"/>
<path d="M142.186 439.632C141.737 439.632 141.373 439.269 141.373 438.821C141.373 438.373 141.737 438.01 142.186 438.01C142.636 438.01 143 438.373 143 438.821C143 439.269 142.636 439.632 142.186 439.632Z" fill="#85FFC7"/>
<path d="M58.8249 475.31C58.3757 475.31 58.0116 474.947 58.0116 474.499C58.0116 474.051 58.3757 473.688 58.8249 473.688C59.2741 473.688 59.6382 474.051 59.6382 474.499C59.6382 474.947 59.2741 475.31 58.8249 475.31Z" fill="#FF6584"/>
<path d="M183.258 431.118C182.808 431.118 182.444 430.755 182.444 430.307C182.444 429.859 182.808 429.496 183.258 429.496C183.707 429.496 184.071 429.859 184.071 430.307C184.071 430.755 183.707 431.118 183.258 431.118Z" fill="#FF6584"/>
<path d="M132.427 365.438C131.978 365.438 131.614 365.075 131.614 364.628C131.614 364.18 131.978 363.817 132.427 363.817C132.876 363.817 133.24 364.18 133.24 364.628C133.24 365.075 132.876 365.438 132.427 365.438Z" fill="#FF6584"/>
<path d="M165.772 403.143C165.323 403.143 164.959 402.78 164.959 402.332C164.959 401.885 165.323 401.522 165.772 401.522C166.221 401.522 166.585 401.885 166.585 402.332C166.585 402.78 166.221 403.143 165.772 403.143Z" fill="#85FFC7"/>
<path d="M155.606 375.979C155.157 375.979 154.793 375.616 154.793 375.169C154.793 374.721 155.157 374.358 155.606 374.358C156.055 374.358 156.419 374.721 156.419 375.169C156.419 375.616 156.055 375.979 155.606 375.979Z" fill="white"/>
<path d="M34.0196 449.362C33.3458 449.362 32.7996 448.818 32.7996 448.146C32.7996 447.474 33.3458 446.93 34.0196 446.93C34.6933 446.93 35.2395 447.474 35.2395 448.146C35.2395 448.818 34.6933 449.362 34.0196 449.362Z" fill="#85FFC7"/>
<path d="M114.941 453.822C114.268 453.822 113.722 453.277 113.722 452.606C113.722 451.934 114.268 451.389 114.941 451.389C115.615 451.389 116.161 451.934 116.161 452.606C116.161 453.277 115.615 453.822 114.941 453.822Z" fill="#85FFC7"/>
<path d="M86.4766 438.416C85.8029 438.416 85.2567 437.871 85.2567 437.199C85.2567 436.528 85.8029 435.983 86.4766 435.983C87.1504 435.983 87.6965 436.528 87.6965 437.199C87.6965 437.871 87.1504 438.416 86.4766 438.416Z" fill="white"/>
<path d="M299.564 403.832L298.733 403.305L299.262 402.476L299.035 402.333L298.506 403.161L297.675 402.634L297.531 402.86L298.362 403.387L297.833 404.216L298.06 404.36L298.588 403.531L299.419 404.058L299.564 403.832Z" fill="#85FFC7"/>
<path d="M361.373 463.836L360.542 463.308L361.071 462.48L360.844 462.336L360.316 463.165L359.484 462.637L359.34 462.863L360.171 463.391L359.642 464.219L359.869 464.363L360.398 463.535L361.229 464.062L361.373 463.836Z" fill="#85FFC7"/>
<path d="M261.339 456.538L260.508 456.011L261.037 455.182L260.81 455.038L260.281 455.867L259.45 455.34L259.306 455.565L260.137 456.093L259.608 456.922L259.835 457.065L260.364 456.237L261.195 456.764L261.339 456.538Z" fill="#85FFC7"/>
<path d="M336.161 495.459L335.33 494.932L335.859 494.103L335.632 493.96L335.104 494.788L334.273 494.261L334.128 494.487L334.959 495.014L334.43 495.843L334.657 495.987L335.186 495.158L336.017 495.685L336.161 495.459Z" fill="#85FFC7"/>
<path d="M266.626 480.458L265.794 479.931L266.323 479.102L266.096 478.959L265.568 479.787L264.737 479.26L264.592 479.486L265.423 480.013L264.894 480.842L265.121 480.986L265.65 480.157L266.481 480.684L266.626 480.458Z" fill="#85FFC7"/>
<path d="M249.547 411.535L248.715 411.008L249.244 410.179L249.018 410.036L248.489 410.864L247.658 410.337L247.513 410.563L248.345 411.09L247.816 411.919L248.042 412.063L248.571 411.234L249.402 411.761L249.547 411.535Z" fill="#85FFC7"/>
<path d="M319.083 420.649L317.919 419.911L318.659 418.751L318.342 418.55L317.602 419.71L316.438 418.971L316.236 419.288L317.4 420.026L316.659 421.186L316.977 421.388L317.717 420.227L318.88 420.966L319.083 420.649Z" fill="white"/>
<path d="M277.198 435.983C277.872 435.983 278.418 435.438 278.418 434.767C278.418 434.095 277.872 433.55 277.198 433.55C276.524 433.55 275.978 434.095 275.978 434.767C275.978 435.438 276.524 435.983 277.198 435.983Z" fill="#85FFC7"/>
<path d="M229.621 435.983C230.295 435.983 230.841 435.438 230.841 434.767C230.841 434.095 230.295 433.55 229.621 433.55C228.947 433.55 228.401 434.095 228.401 434.767C228.401 435.438 228.947 435.983 229.621 435.983Z" fill="#85FFC7"/>
<path d="M312.576 391.386C313.25 391.386 313.796 390.841 313.796 390.17C313.796 389.498 313.25 388.953 312.576 388.953C311.902 388.953 311.356 389.498 311.356 390.17C311.356 390.841 311.902 391.386 312.576 391.386Z" fill="#85FFC7"/>
<path d="M301.19 465.579C301.864 465.579 302.41 465.035 302.41 464.363C302.41 463.691 301.864 463.147 301.19 463.147C300.516 463.147 299.97 463.691 299.97 464.363C299.97 465.035 300.516 465.579 301.19 465.579Z" fill="#85FFC7"/>
<path d="M300.377 439.632C300.826 439.632 301.19 439.269 301.19 438.821C301.19 438.373 300.826 438.01 300.377 438.01C299.928 438.01 299.564 438.373 299.564 438.821C299.564 439.269 299.928 439.632 300.377 439.632Z" fill="#85FFC7"/>
<path d="M259.306 431.118C259.755 431.118 260.119 430.755 260.119 430.307C260.119 429.859 259.755 429.496 259.306 429.496C258.857 429.496 258.493 429.859 258.493 430.307C258.493 430.755 258.857 431.118 259.306 431.118Z" fill="#FF6584"/>
<path d="M310.136 365.438C310.585 365.438 310.95 365.075 310.95 364.628C310.95 364.18 310.585 363.817 310.136 363.817C309.687 363.817 309.323 364.18 309.323 364.628C309.323 365.075 309.687 365.438 310.136 365.438Z" fill="#FF6584"/>
<path d="M276.792 403.143C277.241 403.143 277.605 402.78 277.605 402.332C277.605 401.885 277.241 401.522 276.792 401.522C276.342 401.522 275.978 401.885 275.978 402.332C275.978 402.78 276.342 403.143 276.792 403.143Z" fill="#85FFC7"/>
<path d="M286.958 375.979C287.407 375.979 287.771 375.616 287.771 375.169C287.771 374.721 287.407 374.358 286.958 374.358C286.508 374.358 286.144 374.721 286.144 375.169C286.144 375.616 286.508 375.979 286.958 375.979Z" fill="white"/>
<path d="M327.622 453.822C328.296 453.822 328.842 453.277 328.842 452.606C328.842 451.934 328.296 451.389 327.622 451.389C326.948 451.389 326.402 451.934 326.402 452.606C326.402 453.277 326.948 453.822 327.622 453.822Z" fill="#85FFC7"/>
<path d="M356.087 438.416C356.761 438.416 357.307 437.871 357.307 437.199C357.307 436.528 356.761 435.983 356.087 435.983C355.413 435.983 354.867 436.528 354.867 437.199C354.867 437.871 355.413 438.416 356.087 438.416Z" fill="white"/>
<path d="M299.564 265.971L298.733 266.499L299.262 267.327L299.035 267.471L298.506 266.642L297.675 267.17L297.531 266.944L298.362 266.416L297.833 265.588L298.06 265.444L298.588 266.272L299.419 265.745L299.564 265.971Z" fill="#85FFC7"/>
<path d="M261.339 213.265L260.508 213.793L261.037 214.621L260.81 214.765L260.281 213.936L259.45 214.464L259.306 214.238L260.137 213.71L259.608 212.882L259.835 212.738L260.364 213.567L261.195 213.039L261.339 213.265Z" fill="#85FFC7"/>
<path d="M249.547 258.268L248.715 258.795L249.244 259.624L249.018 259.768L248.489 258.939L247.658 259.466L247.513 259.241L248.345 258.713L247.816 257.884L248.042 257.74L248.571 258.569L249.402 258.042L249.547 258.268Z" fill="#85FFC7"/>
<path d="M319.083 249.154L317.919 249.892L318.659 251.053L318.342 251.254L317.602 250.094L316.438 250.832L316.236 250.515L317.4 249.777L316.659 248.617L316.977 248.416L317.717 249.576L318.88 248.838L319.083 249.154Z" fill="white"/>
<path d="M277.198 233.82C277.872 233.82 278.418 234.365 278.418 235.037C278.418 235.708 277.872 236.253 277.198 236.253C276.524 236.253 275.978 235.708 275.978 235.037C275.978 234.365 276.524 233.82 277.198 233.82Z" fill="#85FFC7"/>
<path d="M229.621 233.82C230.295 233.82 230.841 234.365 230.841 235.037C230.841 235.708 230.295 236.253 229.621 236.253C228.947 236.253 228.401 235.708 228.401 235.037C228.401 234.365 228.947 233.82 229.621 233.82Z" fill="#85FFC7"/>
<path d="M312.576 278.418C313.25 278.418 313.796 278.962 313.796 279.634C313.796 280.306 313.25 280.85 312.576 280.85C311.902 280.85 311.356 280.306 311.356 279.634C311.356 278.962 311.902 278.418 312.576 278.418Z" fill="#85FFC7"/>
<path d="M300.377 230.171C300.826 230.171 301.19 230.535 301.19 230.982C301.19 231.43 300.826 231.793 300.377 231.793C299.928 231.793 299.564 231.43 299.564 230.982C299.564 230.535 299.928 230.171 300.377 230.171Z" fill="#85FFC7"/>
<path d="M259.306 238.686C259.755 238.686 260.119 239.049 260.119 239.496C260.119 239.944 259.755 240.307 259.306 240.307C258.857 240.307 258.493 239.944 258.493 239.496C258.493 239.049 258.857 238.686 259.306 238.686Z" fill="#FF6584"/>
<path d="M310.136 304.365C310.585 304.365 310.95 304.728 310.95 305.176C310.95 305.624 310.585 305.987 310.136 305.987C309.687 305.987 309.323 305.624 309.323 305.176C309.323 304.728 309.687 304.365 310.136 304.365Z" fill="#FF6584"/>
<path d="M276.792 266.66C277.241 266.66 277.605 267.023 277.605 267.471C277.605 267.919 277.241 268.282 276.792 268.282C276.342 268.282 275.978 267.919 275.978 267.471C275.978 267.023 276.342 266.66 276.792 266.66Z" fill="#85FFC7"/>
<path d="M286.958 293.824C287.407 293.824 287.771 294.187 287.771 294.635C287.771 295.083 287.407 295.446 286.958 295.446C286.508 295.446 286.144 295.083 286.144 294.635C286.144 294.187 286.508 293.824 286.958 293.824Z" fill="white"/>
<path d="M327.622 215.981C328.296 215.981 328.842 216.526 328.842 217.198C328.842 217.87 328.296 218.414 327.622 218.414C326.948 218.414 326.402 217.87 326.402 217.198C326.402 216.526 326.948 215.981 327.622 215.981Z" fill="#85FFC7"/>
<path d="M356.087 231.388C356.761 231.388 357.307 231.932 357.307 232.604C357.307 233.276 356.761 233.82 356.087 233.82C355.413 233.82 354.867 233.276 354.867 232.604C354.867 231.932 355.413 231.388 356.087 231.388Z" fill="white"/>
<path d="M113 245.971L113.831 246.498L113.302 247.327L113.529 247.471L114.057 246.642L114.889 247.169L115.033 246.944L114.202 246.416L114.731 245.587L114.504 245.444L113.975 246.272L113.144 245.745L113 245.971Z" fill="#85FFC7"/>
<path d="M163.017 238.268L163.848 238.795L163.319 239.624L163.546 239.768L164.075 238.939L164.906 239.466L165.05 239.241L164.219 238.713L164.748 237.884L164.521 237.74L163.992 238.569L163.161 238.042L163.017 238.268Z" fill="#85FFC7"/>
<path d="M93.4809 229.154L94.6447 229.892L93.9042 231.053L94.2214 231.254L94.9619 230.094L96.1253 230.832L96.3274 230.515L95.1636 229.777L95.9041 228.617L95.5869 228.416L94.8464 229.576L93.683 228.838L93.4809 229.154Z" fill="white"/>
<path d="M135.365 213.82C134.692 213.82 134.145 214.365 134.145 215.037C134.145 215.708 134.692 216.253 135.365 216.253C136.039 216.253 136.585 215.708 136.585 215.037C136.585 214.365 136.039 213.82 135.365 213.82Z" fill="#85FFC7"/>
<path d="M182.942 213.82C182.269 213.82 181.723 214.365 181.723 215.037C181.723 215.708 182.269 216.253 182.942 216.253C183.616 216.253 184.162 215.708 184.162 215.037C184.162 214.365 183.616 213.82 182.942 213.82Z" fill="#85FFC7"/>
<path d="M99.9874 258.418C99.3136 258.418 98.7674 258.962 98.7674 259.634C98.7674 260.306 99.3136 260.85 99.9874 260.85C100.661 260.85 101.207 260.306 101.207 259.634C101.207 258.962 100.661 258.418 99.9874 258.418Z" fill="#85FFC7"/>
<path d="M112.186 210.171C111.737 210.171 111.373 210.535 111.373 210.982C111.373 211.43 111.737 211.793 112.186 211.793C112.636 211.793 113 211.43 113 210.982C113 210.535 112.636 210.171 112.186 210.171Z" fill="#85FFC7"/>
<path d="M153.258 218.686C152.808 218.686 152.444 219.049 152.444 219.496C152.444 219.944 152.808 220.307 153.258 220.307C153.707 220.307 154.071 219.944 154.071 219.496C154.071 219.049 153.707 218.686 153.258 218.686Z" fill="#FF6584"/>
<path d="M102.427 284.365C101.978 284.365 101.614 284.728 101.614 285.176C101.614 285.624 101.978 285.987 102.427 285.987C102.876 285.987 103.24 285.624 103.24 285.176C103.24 284.728 102.876 284.365 102.427 284.365Z" fill="#FF6584"/>
<path d="M135.772 246.66C135.323 246.66 134.959 247.023 134.959 247.471C134.959 247.919 135.323 248.282 135.772 248.282C136.221 248.282 136.585 247.919 136.585 247.471C136.585 247.023 136.221 246.66 135.772 246.66Z" fill="#85FFC7"/>
<path d="M125.606 273.824C125.157 273.824 124.793 274.187 124.793 274.635C124.793 275.083 125.157 275.446 125.606 275.446C126.055 275.446 126.419 275.083 126.419 274.635C126.419 274.187 126.055 273.824 125.606 273.824Z" fill="white"/>
<path d="M56.4766 211.388C55.8029 211.388 55.2567 211.932 55.2567 212.604C55.2567 213.276 55.8029 213.82 56.4766 213.82C57.1504 213.82 57.6965 213.276 57.6965 212.604C57.6965 211.932 57.1504 211.388 56.4766 211.388Z" fill="white"/>
<path d="M353 293.832L353.831 293.305L353.302 292.476L353.529 292.333L354.057 293.161L354.889 292.634L355.033 292.86L354.202 293.387L354.731 294.216L354.504 294.36L353.975 293.531L353.144 294.058L353 293.832Z" fill="#85FFC7"/>
<path d="M291.19 353.836L292.021 353.308L291.492 352.48L291.719 352.336L292.248 353.165L293.079 352.637L293.223 352.863L292.392 353.391L292.921 354.219L292.694 354.363L292.166 353.535L291.335 354.062L291.19 353.836Z" fill="#85FFC7"/>
<path d="M316.402 385.459L317.233 384.932L316.704 384.103L316.931 383.96L317.46 384.788L318.291 384.261L318.435 384.487L317.604 385.014L318.133 385.843L317.906 385.987L317.378 385.158L316.546 385.685L316.402 385.459Z" fill="#85FFC7"/>
<path d="M218.401 350.592L219.232 350.065L218.703 349.236L218.93 349.093L219.459 349.921L220.29 349.394L220.434 349.62L219.603 350.147L220.132 350.976L219.905 351.12L219.377 350.291L218.545 350.818L218.401 350.592Z" fill="#85FFC7"/>
<path d="M333.481 310.649L334.645 309.911L333.904 308.751L334.221 308.55L334.962 309.71L336.125 308.971L336.327 309.288L335.164 310.026L335.904 311.186L335.587 311.388L334.846 310.227L333.683 310.966L333.481 310.649Z" fill="white"/>
<path d="M375.365 325.983C374.692 325.983 374.145 325.438 374.145 324.767C374.145 324.095 374.692 323.55 375.365 323.55C376.039 323.55 376.585 324.095 376.585 324.767C376.585 325.438 376.039 325.983 375.365 325.983Z" fill="#85FFC7"/>
<path d="M339.987 281.386C339.314 281.386 338.767 280.841 338.767 280.17C338.767 279.498 339.314 278.953 339.987 278.953C340.661 278.953 341.207 279.498 341.207 280.17C341.207 280.841 340.661 281.386 339.987 281.386Z" fill="#85FFC7"/>
<path d="M351.373 355.579C350.7 355.579 350.153 355.035 350.153 354.363C350.153 353.691 350.7 353.147 351.373 353.147C352.047 353.147 352.593 353.691 352.593 354.363C352.593 355.035 352.047 355.579 351.373 355.579Z" fill="#85FFC7"/>
<path d="M352.186 329.632C351.737 329.632 351.373 329.269 351.373 328.821C351.373 328.373 351.737 328.01 352.186 328.01C352.636 328.01 353 328.373 353 328.821C353 329.269 352.636 329.632 352.186 329.632Z" fill="#85FFC7"/>
<path d="M268.825 365.31C268.376 365.31 268.012 364.947 268.012 364.499C268.012 364.051 268.376 363.688 268.825 363.688C269.274 363.688 269.638 364.051 269.638 364.499C269.638 364.947 269.274 365.31 268.825 365.31Z" fill="#FF6584"/>
<path d="M342.427 255.438C341.978 255.438 341.614 255.075 341.614 254.628C341.614 254.18 341.978 253.817 342.427 253.817C342.876 253.817 343.24 254.18 343.24 254.628C343.24 255.075 342.876 255.438 342.427 255.438Z" fill="#FF6584"/>
<path d="M375.772 293.143C375.323 293.143 374.959 292.78 374.959 292.332C374.959 291.885 375.323 291.522 375.772 291.522C376.221 291.522 376.585 291.885 376.585 292.332C376.585 292.78 376.221 293.143 375.772 293.143Z" fill="#85FFC7"/>
<path d="M365.606 265.979C365.157 265.979 364.793 265.616 364.793 265.169C364.793 264.721 365.157 264.358 365.606 264.358C366.055 264.358 366.419 264.721 366.419 265.169C366.419 265.616 366.055 265.979 365.606 265.979Z" fill="white"/>
<path d="M244.02 339.362C243.346 339.362 242.8 338.818 242.8 338.146C242.8 337.474 243.346 336.93 244.02 336.93C244.693 336.93 245.24 337.474 245.24 338.146C245.24 338.818 244.693 339.362 244.02 339.362Z" fill="#85FFC7"/>
<path d="M324.941 343.822C324.268 343.822 323.722 343.277 323.722 342.606C323.722 341.934 324.268 341.389 324.941 341.389C325.615 341.389 326.161 341.934 326.161 342.606C326.161 343.277 325.615 343.822 324.941 343.822Z" fill="#85FFC7"/>
<path d="M296.477 328.416C295.803 328.416 295.257 327.871 295.257 327.199C295.257 326.528 295.803 325.983 296.477 325.983C297.15 325.983 297.697 326.528 297.697 327.199C297.697 327.871 297.15 328.416 296.477 328.416Z" fill="white"/>
<path d="M52.9998 403.832L53.8309 403.305L53.3019 402.476L53.5288 402.333L54.0574 403.161L54.8886 402.634L55.033 402.86L54.2018 403.387L54.7308 404.216L54.5039 404.36L53.9753 403.531L53.1441 404.058L52.9998 403.832Z" fill="#85FFC7"/>
<path d="M91.2243 456.538L92.0555 456.011L91.5265 455.182L91.7534 455.038L92.282 455.867L93.1132 455.34L93.2576 455.565L92.4264 456.093L92.9554 456.922L92.7285 457.065L92.1999 456.237L91.3687 456.764L91.2243 456.538Z" fill="#85FFC7"/>
<path d="M16.4021 495.459L17.2333 494.932L16.7043 494.103L16.9311 493.96L17.4598 494.788L18.291 494.261L18.4353 494.487L17.6042 495.014L18.1332 495.843L17.9063 495.987L17.3776 495.158L16.5465 495.685L16.4021 495.459Z" fill="#85FFC7"/>
<path d="M85.938 480.458L86.7692 479.931L86.2401 479.102L86.467 478.959L86.9956 479.787L87.8268 479.26L87.9712 479.486L87.14 480.013L87.6691 480.842L87.4422 480.986L86.9135 480.157L86.0823 480.684L85.938 480.458Z" fill="#85FFC7"/>
<path d="M103.017 411.535L103.848 411.008L103.319 410.179L103.546 410.036L104.075 410.864L104.906 410.337L105.05 410.563L104.219 411.09L104.748 411.919L104.521 412.063L103.992 411.234L103.161 411.761L103.017 411.535Z" fill="#85FFC7"/>
<path d="M33.4809 420.649L34.6447 419.911L33.9042 418.751L34.2214 418.55L34.9619 419.71L36.1253 418.971L36.3274 419.288L35.1636 420.026L35.9041 421.186L35.5869 421.388L34.8464 420.227L33.683 420.966L33.4809 420.649Z" fill="white"/>
<path d="M75.3653 435.983C74.6915 435.983 74.1454 435.438 74.1454 434.767C74.1454 434.095 74.6915 433.55 75.3653 433.55C76.039 433.55 76.5852 434.095 76.5852 434.767C76.5852 435.438 76.039 435.983 75.3653 435.983Z" fill="#85FFC7"/>
<path d="M122.942 435.983C122.269 435.983 121.723 435.438 121.723 434.767C121.723 434.095 122.269 433.55 122.942 433.55C123.616 433.55 124.162 434.095 124.162 434.767C124.162 435.438 123.616 435.983 122.942 435.983Z" fill="#85FFC7"/>
<path d="M39.9874 391.386C39.3136 391.386 38.7674 390.841 38.7674 390.17C38.7674 389.498 39.3136 388.953 39.9874 388.953C40.6611 388.953 41.2073 389.498 41.2073 390.17C41.2073 390.841 40.6611 391.386 39.9874 391.386Z" fill="#85FFC7"/>
<path d="M51.3733 465.579C50.6996 465.579 50.1534 465.035 50.1534 464.363C50.1534 463.691 50.6996 463.147 51.3733 463.147C52.0471 463.147 52.5933 463.691 52.5933 464.363C52.5933 465.035 52.0471 465.579 51.3733 465.579Z" fill="#85FFC7"/>
<path d="M52.1865 439.632C51.7373 439.632 51.3732 439.269 51.3732 438.821C51.3732 438.373 51.7373 438.01 52.1865 438.01C52.6356 438.01 52.9998 438.373 52.9998 438.821C52.9998 439.269 52.6356 439.632 52.1865 439.632Z" fill="#85FFC7"/>
<path d="M93.2575 431.118C92.8083 431.118 92.4442 430.755 92.4442 430.307C92.4442 429.859 92.8083 429.496 93.2575 429.496C93.7067 429.496 94.0708 429.859 94.0708 430.307C94.0708 430.755 93.7067 431.118 93.2575 431.118Z" fill="#FF6584"/>
<path d="M42.4272 365.438C41.978 365.438 41.6139 365.075 41.6139 364.628C41.6139 364.18 41.978 363.817 42.4272 363.817C42.8764 363.817 43.2405 364.18 43.2405 364.628C43.2405 365.075 42.8764 365.438 42.4272 365.438Z" fill="#FF6584"/>
<path d="M75.7719 403.143C75.3227 403.143 74.9586 402.78 74.9586 402.332C74.9586 401.885 75.3227 401.522 75.7719 401.522C76.2211 401.522 76.5852 401.885 76.5852 402.332C76.5852 402.78 76.2211 403.143 75.7719 403.143Z" fill="#85FFC7"/>
<path d="M65.6059 375.979C65.1568 375.979 64.7926 375.616 64.7926 375.169C64.7926 374.721 65.1568 374.358 65.6059 374.358C66.0551 374.358 66.4192 374.721 66.4192 375.169C66.4192 375.616 66.0551 375.979 65.6059 375.979Z" fill="white"/>
<path d="M24.9415 453.822C24.2677 453.822 23.7215 453.277 23.7215 452.606C23.7215 451.934 24.2677 451.389 24.9415 451.389C25.6152 451.389 26.1614 451.934 26.1614 452.606C26.1614 453.277 25.6152 453.822 24.9415 453.822Z" fill="#85FFC7"/>
<path d="M45.6804 485.445C43.4346 485.445 41.614 483.63 41.614 481.391C41.614 479.152 43.4346 477.337 45.6804 477.337C47.9262 477.337 49.7468 479.152 49.7468 481.391C49.7468 483.63 47.9262 485.445 45.6804 485.445Z" fill="#85FFC7"/>
<path d="M38.1639 501.179C38.1639 501.179 35.8879 510.668 37.957 511.081C40.0261 511.493 50.1645 511.36 52.6473 511.773C55.1302 512.185 60.3028 511.493 60.3028 509.637C60.3028 507.78 54.9233 506.542 54.9233 506.542C54.9233 506.542 47.2678 502.417 47.0609 502.21C46.8539 502.004 38.1639 501.179 38.1639 501.179Z" fill="#2F2E41"/>
<path d="M40.6008 433.422C40.6008 433.422 41.3429 441.808 41.3429 442.548C41.3429 443.288 36.89 482.257 37.8796 490.15C38.8691 498.042 37.788 500.563 37.788 502.043C37.788 503.523 45.7957 502.975 45.7957 502.975L54.454 448.467L50.0012 432.189L40.6008 433.422Z" fill="#2F2E41"/>
<path d="M41.0604 503.256C41.0604 503.256 38.9914 510.682 41.0604 511.095C43.1295 511.507 53.2679 510.622 55.7508 511.035C58.2337 511.447 63.4063 511.508 63.4063 509.651C63.4063 507.794 58.0268 506.557 58.0268 506.557C58.0268 506.557 50.3712 502.431 50.1643 502.224C49.9574 502.018 41.0604 503.256 41.0604 503.256Z" fill="#2F2E41"/>
<path d="M38.3743 423.557C38.3743 423.557 35.4058 430.709 38.8691 434.409C42.3324 438.109 46.2905 445.508 46.2905 446.001C46.2905 446.494 39.3639 495.576 40.3534 498.782C41.3429 501.989 41.0955 503.962 40.8481 504.455C40.6007 504.948 43.3219 507.661 46.2905 507.661C49.259 507.661 53.7119 505.442 54.2066 503.468C54.7013 501.495 53.4645 484.477 53.7118 481.271C53.9592 478.064 63.8544 426.763 62.6175 425.53C61.3806 424.297 38.3743 423.557 38.3743 423.557Z" fill="#2F2E41"/>
<path d="M57.1751 366.829C61.8203 366.829 65.586 363.075 65.586 358.444C65.586 353.812 61.8203 350.058 57.1751 350.058C52.5298 350.058 48.7642 353.812 48.7642 358.444C48.7642 363.075 52.5298 366.829 57.1751 366.829Z" fill="#9F616A"/>
<path d="M51.9802 362.636C51.9802 362.636 53.7119 371.762 52.475 372.749C51.2381 373.735 61.8754 375.215 61.8754 375.215C61.8754 375.215 63.1123 363.13 63.3597 361.897C63.6071 360.663 51.9802 362.636 51.9802 362.636Z" fill="#9F616A"/>
<path d="M63.3596 374.475C63.3596 374.475 64.9553 365.785 52.8337 368.251C52.8337 368.251 41.7662 377.299 42.261 385.685C42.7557 394.071 38.3743 418.377 38.869 420.104C39.3638 421.83 35.9005 424.05 37.3848 424.79C38.869 425.53 65.586 429.969 66.3282 424.79C67.0703 419.61 66.0808 406.539 66.5755 404.072C67.0703 401.606 66.5755 380.888 65.0913 378.421C63.607 375.955 63.3596 374.475 63.3596 374.475Z" fill="#85FFC7"/>
<path d="M58.1646 434.656C58.1646 434.656 54.4539 448.714 59.1541 448.714C63.8543 448.714 63.607 434.162 63.607 434.162L58.1646 434.656Z" fill="#9F616A"/>
<path d="M60.6018 359.843C60.4945 360.55 59.3991 360.844 57.7912 360.706L57.7888 360.706C57.1079 360.642 56.4328 360.527 55.7694 360.361C54.766 360.115 54.2006 361.005 53.836 362.238C53.2374 364.27 53.1923 367.239 52.6657 367.626C48.9897 369.652 38.1279 356.07 43.6938 352.553C45.6762 351.301 52.3493 346.625 56.9597 347.57C61.57 348.514 59.7036 354.22 59.7036 354.22C59.7036 354.22 59.8727 354.969 60.0645 355.93C60.3376 357.142 60.5222 358.372 60.617 359.611C60.617 359.688 60.6119 359.766 60.6018 359.843Z" fill="#2F2E41"/>
<path d="M61.1332 376.942C61.1332 376.942 52.7223 376.448 51.9801 388.78C51.238 401.112 51.4854 412.705 51.4854 412.951C51.4854 413.198 54.9487 436.629 58.1646 436.629C61.3806 436.629 63.8544 436.135 64.5965 434.902C65.3386 433.669 62.6175 415.911 62.6175 415.911C62.6175 415.911 61.3806 397.166 63.3596 391.247C65.3386 385.327 65.586 377.682 61.1332 376.942Z" fill="#85FFC7"/>
<path opacity="0.1" d="M51.6137 392.172L49.1738 418.525L57.3067 436.769L52.0203 418.119L51.6137 391.766" fill="black"/>
<path opacity="0.1" d="M63.4064 395.01L64.0277 426.077L61.7798 409.2L63.4064 395.01Z" fill="black"/>
</g>
<defs>
<clipPath id="clip0">
<rect width="375" height="303" fill="white" transform="translate(0.781738 209.021)"/>
</clipPath>
</defs>
</svg>
