<svg width="375" height="812" viewBox="0 0 375 812" fill="none" xmlns="http://www.w3.org/2000/svg">
<path d="M80.8825 59.7247C-59.0586 48.2034 -1.03992 36.4815 -0.00390284 5.41968e-06L375.117 -2.58578e-06C385.508 58.0443 492.391 199.088 398.013 181.522C280.04 159.563 255.809 74.1262 80.8825 59.7247Z" fill="#297373"/>
<path d="M264.791 -25.9108C244.218 -88.2337 209.468 -62.8904 193.842 -73.959C108.874 -86.6554 -102.064 -168.581 -124.722 -59.1964C-153.045 77.5338 -34.4387 142.828 25.1366 121.342C84.7119 99.8558 306.075 99.1546 264.791 -25.9108Z" fill="#FF8552"/>
<path d="M474.883 787.732C454.311 850.055 387.977 824.456 372.35 835.525C287.382 848.221 -78.894 867.179 -101.552 757.795C-129.875 621.064 138.922 581.498 232.06 581.498C295.391 581.498 516.167 662.666 474.883 787.732Z" fill="#5F9C80"/>
</svg>
