<svg version="1.1" id="Layer_1" xmlns="http://www.w3.org/2000/svg" xmlns:xlink="http://www.w3.org/1999/xlink" x="0px" y="0px" viewBox="0 0 283.8 55.4" xml:space="preserve">
<style type="text/css">
	.stars-logo{fill:#E1011B;}
</style>
<g>
	<path class="stars-logo" d="M267.7,9.3c0-4.6,3.7-7.9,8.1-7.9c4.3,0,8,3.4,8,7.9c0,4.6-3.7,8-8,8C271.4,17.3,267.7,13.9,267.7,9.3
		 M275.7,15.9c3.6,0,6.4-2.8,6.4-6.6c0-3.8-2.8-6.6-6.4-6.6c-3.6,0-6.5,2.8-6.5,6.6C269.3,13.1,272.1,15.9,275.7,15.9 M274.1,13.9
		h-1.4V4.7h3.5c2.2,0,3.2,0.8,3.2,2.6c0,1.6-1,2.3-2.4,2.5l2.6,4h-1.5l-2.4-4h-1.6V13.9z M275.7,8.7c1.2,0,2.2-0.1,2.2-1.5
		c0-1.1-1-1.4-2-1.4h-1.9v2.8H275.7z"></path>
	<g>
		<path class="stars-logo" d="M0,45.6l9.6-9.9c5.2,4.8,10.6,7.3,16.5,7.3c3.5,0,6-1.5,6-4c0-2.1-1.5-3.1-8.9-6c-8.5-3.2-13.9-6.9-13.9-14.8
			C9.3,7.6,18.9,0,32,0c9.4,0,16.8,3.1,21.9,8l-9.2,10.2c-4.1-3.5-8.7-5.9-14.1-5.9c-3.6,0-5.8,1.7-5.8,3.8c0,2.1,1.6,2.9,8.9,5.8
			c8.3,3.1,13.9,6.9,13.9,14.9c0,11-9.5,18.5-22.8,18.5C14.4,55.4,5.7,51.8,0,45.6z"></path>
		<path class="stars-logo" d="M71.4,13.9H55.4l3.5-13h46.9l-3.4,13H86.3L75.4,54.5H60.5L71.4,13.9z"></path>
		<path class="stars-logo" d="M123.7,0.5h14.5l8.3,53.9H131l-1.3-9.6h-20.6l-6.4,9.6H86.5L123.7,0.5z M128.5,33.3L126.6,18l-10,15.4H128.5z
			"></path>
		<path class="stars-logo" d="M164.9,0.9h20.2c8.9,0,14.8,2,18.4,5.6c2.8,2.8,4.1,6.7,4.1,10.9c0,9-5.1,16-16.1,19l8.3,18.1h-16.4
			l-7.1-16.2h-6.6l-4.4,16.2h-14.9L164.9,0.9z M181.3,26.6c6.7,0,11-2.8,11-7.4c0-1.5-0.5-2.6-1.4-3.6c-1.2-1.2-3.4-1.8-6.6-1.8h-8
			l-3.5,12.9H181.3z"></path>
		<path class="stars-logo" d="M204.9,45.6l9.6-9.9c5.2,4.8,10.6,7.3,16.5,7.3c3.5,0,6-1.5,6-4c0-2.1-1.5-3.1-8.9-6
			c-8.5-3.2-13.9-6.9-13.9-14.8c0-10.6,9.6-18.2,22.7-18.2c9.4,0,16.8,3.1,21.9,8l-9.2,10.2c-4.1-3.5-8.7-5.9-14.1-5.9
			c-3.6,0-5.8,1.7-5.8,3.8c0,2.1,1.6,2.9,8.9,5.8c8.3,3.1,13.9,6.9,13.9,14.9c0,11-9.5,18.5-22.8,18.5
			C219.3,55.4,210.7,51.8,204.9,45.6z"></path>
	</g>
</g>
<g>
	<path class="stars-logo" d="M267.7,9.3c0-4.6,3.7-7.9,8.1-7.9c4.3,0,8,3.4,8,7.9c0,4.6-3.7,8-8,8C271.4,17.3,267.7,13.9,267.7,9.3
		 M275.7,15.9c3.6,0,6.4-2.8,6.4-6.6c0-3.7-2.8-6.6-6.4-6.6c-3.6,0-6.5,2.8-6.5,6.6C269.3,13.1,272.1,15.9,275.7,15.9 M274.1,13.9
		h-1.4V4.7h3.5c2.2,0,3.2,0.8,3.2,2.6c0,1.6-1,2.4-2.4,2.5l2.6,4h-1.5l-2.4-4h-1.6V13.9z M275.7,8.7c1.2,0,2.2-0.1,2.2-1.5
		c0-1.1-1-1.4-2-1.4h-1.9v2.8H275.7z"></path>
</g>
</svg>